<?xml version="1.0" standalone="no"?>
<!DOCTYPE svg PUBLIC "-//W3C//DTD SVG 20010904//EN"
 "http://www.w3.org/TR/2001/REC-SVG-20010904/DTD/svg10.dtd">
<svg version="1.0" xmlns="http://www.w3.org/2000/svg"
 width="278.000000pt" height="278.000000pt" viewBox="0 0 278.000000 278.000000"
 preserveAspectRatio="xMidYMid meet">
<metadata>
Created by potrace 1.11, written by Peter Selinger 2001-2013
</metadata>
<g transform="translate(0.000000,278.000000) scale(0.100000,-0.100000)"
fill="#000000" stroke="none">
<path d="M330 2349 c-98 -16 -224 -93 -272 -167 -54 -82 -70 -207 -38 -308 17
-55 66 -156 87 -179 43 -47 95 -135 119 -202 l27 -73 -27 -21 c-35 -28 -36
-80 -2 -110 24 -21 24 -23 8 -48 -9 -14 -19 -28 -22 -31 -14 -11 -51 -121 -70
-204 -24 -106 -33 -248 -19 -296 21 -68 55 -126 99 -169 41 -40 129 -90 191
-109 13 -4 502 -8 1085 -9 1159 -2 1098 -5 1208 57 43 25 56 37 56 55 0 13 -4
26 -9 29 -4 3 -11 24 -14 46 -4 34 -1 45 19 67 17 19 24 37 24 67 0 70 -50
116 -120 109 -30 -2 -37 1 -48 25 -31 63 -54 129 -67 192 -27 126 -27 120 5
138 17 10 32 29 35 44 6 26 -8 67 -28 80 -6 4 3 38 25 90 20 45 46 114 58 151
16 51 28 71 46 77 35 14 57 52 45 82 -5 13 -15 29 -23 36 -11 8 -13 27 -10 64
12 153 -76 241 -243 241 -77 0 -185 -23 -212 -45 -7 -6 -13 -7 -13 -3 0 3 -24
-7 -54 -22 l-53 -29 -31 27 c-93 83 -236 19 -234 -106 0 -30 -5 -45 -15 -49
-26 -10 -217 0 -242 13 -23 13 -34 22 -116 95 -22 19 -43 36 -47 36 -5 0 -8
12 -8 28 l0 28 -142 -1 -143 -1 -80 42 c-44 23 -127 68 -185 101 -92 51 -105
61 -107 87 -4 58 -62 85 -109 52 -18 -13 -28 -13 -85 5 -70 22 -178 30 -249
18z"/>
</g>
</svg>
